<?xml version="1.0" standalone="no"?><!DOCTYPE svg PUBLIC "-//W3C//DTD SVG 1.1//EN" "http://www.w3.org/Graphics/SVG/1.1/DTD/svg11.dtd"><svg t="1621323059450" class="icon" viewBox="0 0 1024 1024" version="1.1" xmlns="http://www.w3.org/2000/svg" p-id="7076" xmlns:xlink="http://www.w3.org/1999/xlink" width="64" height="64"><defs><style type="text/css"></style></defs><path d="M934.176 168.48c-116.128-115.072-301.824-117.472-422.112-9.216-120.32-108.256-305.952-105.856-422.144 9.216a301.44 301.44 0 0 0 0 429.28l353.696 350.112a97.344 97.344 0 0 0 136.896 0L934.208 597.76a301.376 301.376 0 0 0-0.032-429.28z m-45.6 384.096L534.88 902.688a32.384 32.384 0 0 1-45.6 0L135.584 552.576a238.176 238.176 0 0 1 0-338.912c91.008-90.08 237.312-93.248 333.088-7.104l43.392 39.04 43.36-39.04c95.808-86.144 242.112-83.008 333.12 7.104a238.208 238.208 0 0 1 0.032 338.912z" fill="#ffffff" p-id="7077"></path><path d="M296.096 240.032l-0.128 0.032a136 136 0 0 0-135.872 135.968 16 16 0 0 0 32 0v-0.032a104 104 0 0 1 103.968-103.968h0.032a16 16 0 0 0 0-32z" fill="#ffffff" p-id="7078"></path></svg>